<svg width="31" height="30" viewBox="0 0 31 30" fill="none" xmlns="http://www.w3.org/2000/svg">
<g clip-path="url(#clip0_2_78)">
<path d="M15.4541 9.91187C14.128 9.91187 12.8562 10.434 11.9186 11.3634C10.9809 12.2928 10.4541 13.5534 10.4541 14.8678C10.4541 16.1822 10.9809 17.4427 11.9186 18.3721C12.8562 19.3015 14.128 19.8237 15.4541 19.8237C16.7802 19.8237 18.052 19.3015 18.9896 18.3721C19.9273 17.4427 20.4541 16.1822 20.4541 14.8678C20.4541 13.5534 19.9273 12.2928 18.9896 11.3634C18.052 10.434 16.7802 9.91187 15.4541 9.91187Z" fill="black"/>
<path fill-rule="evenodd" clip-rule="evenodd" d="M9.4541 0C7.06715 0 4.77797 0.93985 3.09014 2.61279C1.40231 4.28574 0.454102 6.55474 0.454102 8.92064L0.454102 20.8148C0.454102 23.1807 1.40231 25.4497 3.09014 27.1227C4.77797 28.7956 7.06715 29.7355 9.4541 29.7355H21.4541C23.841 29.7355 26.1302 28.7956 27.8181 27.1227C29.5059 25.4497 30.4541 23.1807 30.4541 20.8148V8.92064C30.4541 6.55474 29.5059 4.28574 27.8181 2.61279C26.1302 0.93985 23.841 0 21.4541 0L9.4541 0ZM8.4541 14.8677C8.4541 13.0276 9.1916 11.2628 10.5044 9.96163C11.8171 8.66045 13.5976 7.92946 15.4541 7.92946C17.3106 7.92946 19.0911 8.66045 20.4038 9.96163C21.7166 11.2628 22.4541 13.0276 22.4541 14.8677C22.4541 16.7079 21.7166 18.4727 20.4038 19.7738C19.0911 21.075 17.3106 21.806 15.4541 21.806C13.5976 21.806 11.8171 21.075 10.5044 19.7738C9.1916 18.4727 8.4541 16.7079 8.4541 14.8677ZM22.4541 7.92946H24.4541V5.94709H22.4541V7.92946Z" fill="black"/>
</g>
<defs>
<clipPath id="clip0_2_78">
<rect width="30" height="29.7355" fill="white" transform="translate(0.454102)"/>
</clipPath>
</defs>
</svg>
