<svg width="35" height="34" viewBox="0 0 35 34" fill="none" xmlns="http://www.w3.org/2000/svg">
<path d="M29.0141 9.68994C24.9341 3.39994 16.6041 1.52994 10.1441 5.43994C3.85409 9.34994 1.81409 17.8499 5.89409 24.1399L6.23409 24.6499L4.87409 29.7499L9.97409 28.3899L10.4841 28.7299C12.6941 29.9199 15.0741 30.5999 17.4541 30.5999C20.0041 30.5999 22.5541 29.9199 24.7641 28.5599C31.0541 24.4799 32.9241 16.1499 29.0141 9.68994ZM25.4441 22.7799C24.7641 23.7999 23.9141 24.4799 22.7241 24.6499C22.0441 24.6499 21.1941 24.9899 17.7941 23.6299C14.9041 22.2699 12.5241 20.0599 10.8241 17.5099C9.80409 16.3199 9.29409 14.7899 9.12409 13.2599C9.12409 11.8999 9.63409 10.7099 10.4841 9.85994C10.8241 9.51994 11.1641 9.34994 11.5041 9.34994H12.3541C12.6941 9.34994 13.0341 9.34994 13.2041 10.0299C13.5441 10.8799 14.3941 12.9199 14.3941 13.0899C14.5641 13.2599 14.5641 13.5999 14.3941 13.7699C14.5641 14.1099 14.3941 14.4499 14.2241 14.6199C14.0541 14.7899 13.8841 15.1299 13.7141 15.2999C13.3741 15.4699 13.2041 15.8099 13.3741 16.1499C14.0541 17.1699 14.9041 18.1899 15.7541 19.0399C16.7741 19.8899 17.7941 20.5699 18.9841 21.0799C19.3241 21.2499 19.6641 21.2499 19.8341 20.9099C20.0041 20.5699 20.8541 19.7199 21.1941 19.3799C21.5341 19.0399 21.7041 19.0399 22.0441 19.2099L24.7641 20.5699C25.1041 20.7399 25.4441 20.9099 25.6141 21.0799C25.7841 21.5899 25.7841 22.2699 25.4441 22.7799Z" fill="black"/>
</svg>
